<?xml version="1.0" encoding="utf-8"?>
<!-- Generator: Adobe Illustrator 16.0.0, SVG Export Plug-In . SVG Version: 6.00 Build 0)  -->
<!DOCTYPE svg PUBLIC "-//W3C//DTD SVG 1.1//EN" "http://www.w3.org/Graphics/SVG/1.1/DTD/svg11.dtd">
<svg version="1.1" id="Layer_1" xmlns="http://www.w3.org/2000/svg" xmlns:xlink="http://www.w3.org/1999/xlink" x="0px" y="0px"
	 width="520px" height="520px" viewBox="0 0 520 520" enable-background="new 0 0 520 520" xml:space="preserve">
<g>
	<path fill-rule="evenodd" clip-rule="evenodd" d="M260.465,480.99c-6.696-0.44-13.432-0.572-20.081-1.396
		c-9.799-1.216-16.003-8.487-16.185-18.289c-0.053-2.879,0.125-5.772-0.097-8.636c-0.941-12.159-7-20.577-18.455-25.069
		c-7.28-2.855-14.628-5.596-21.706-8.901c-13.349-6.232-24.321-4.662-35.143,5.545c-14.242,13.435-20.487,13.649-34.814,0.194
		c-7.681-7.213-14.944-14.912-21.956-22.782c-6.448-7.238-5.886-17.267,0.738-24.373c1.962-2.104,4.099-4.048,6.067-6.148
		c8.514-9.09,10.074-20.638,4.826-31.96c-3.352-7.231-6.407-14.625-9.142-22.111c-4.364-11.947-13.609-18.967-26.361-19.408
		c-3.355-0.116-6.735,0.074-10.066-0.25c-8.949-0.871-15.882-7.723-16.155-16.732c-0.381-12.608-0.424-25.243-0.078-37.852
		c0.308-11.222,7.881-18.124,19.189-18.399c3.995-0.098,8.086,0.257,11.963-0.486c9.959-1.912,16.97-7.699,20.819-17.226
		c3.407-8.432,6.997-16.791,10.435-25.211c4.547-11.141,2.873-21.277-5.19-30.253c-2.135-2.377-4.586-4.474-6.699-6.87
		c-6.163-6.989-6.816-16.826-0.55-23.64c9.076-9.868,18.579-19.392,28.449-28.465c7.029-6.463,16.878-5.739,23.982,0.705
		c2.368,2.147,4.479,4.583,6.892,6.676c9.074,7.871,19.164,9.566,30.311,4.855c8.23-3.479,16.488-6.895,24.789-10.202
		c10.76-4.287,17.585-13.894,17.892-25.517c0.072-2.718-0.016-5.44,0.037-8.159c0.189-9.858,6.354-17.617,16.194-18.149
		c13.541-0.733,27.179-0.75,40.72-0.027c9.741,0.521,15.936,8.419,16.11,18.259c0.073,4.154-0.458,8.413,0.283,12.442
		c1.944,10.579,8.282,17.643,18.398,21.503c7.748,2.955,15.411,6.155,22.992,9.518c10.631,4.717,20.532,3.809,29.722-3.346
		c2.514-1.957,4.806-4.218,7.078-6.462c8.26-8.156,17.754-9.05,26.428-1.264c9.145,8.207,17.896,16.931,26.12,26.059
		c7.872,8.738,7.069,18.621-1.229,26.917c-5.117,5.115-10.175,10.142-11.885,17.601c-1.578,6.88-0.44,13.221,2.458,19.55
		c3.248,7.094,6.467,14.245,8.988,21.615c3.812,11.141,13.091,18.768,24.795,19.418c2.713,0.15,5.437,0.142,8.155,0.156
		c11.512,0.061,19.4,6.782,19.951,18.23c0.574,11.954,0.616,23.977,0.047,35.929c-0.583,12.232-7.927,18.622-20.253,19.06
		c-4.147,0.147-8.423-0.085-12.407,0.848c-9.729,2.279-16.124,8.557-19.756,17.868c-3.072,7.874-6.254,15.718-9.734,23.418
		c-4.885,10.807-3.202,22.429,4.949,31.139c2.075,2.22,4.332,4.269,6.407,6.487c6.282,6.715,7.248,16.879,1.095,23.604
		c-9.264,10.124-19.019,19.848-29.113,29.147c-6.412,5.907-16.079,5.259-22.899-0.478c-2.44-2.052-4.574-4.467-6.861-6.702
		c-8.968-8.765-21.515-10.363-32.777-4.812c-6.845,3.374-13.966,6.309-21.195,8.752c-11.744,3.971-19.563,14.121-19.746,26.64
		c-0.021,1.439-0.004,2.88-0.004,4.319c-0.008,14.541-5.827,21.068-20.421,22.29c-5.399,0.451-10.866,0.073-16.303,0.073
		C260.479,480.483,260.472,480.737,260.465,480.99z M373.003,261.309c0.389-61.459-49.956-112.525-111.307-112.9
		c-62.854-0.383-113.532,49.447-114.056,112.149c-0.515,61.746,50.112,112.889,112.086,113.228
		C321.945,374.124,372.606,323.82,373.003,261.309z"/>
</g>
</svg>
